<svg xmlns="http://www.w3.org/2000/svg" viewBox="0 0 32 32">
  <defs>
    <radialGradient id="gear" cx="0.5" cy="0.5" r="0.5">
      <stop offset="0%" stop-color="#C0C0C0"/>
      <stop offset="100%" stop-color="#808080"/>
    </radialGradient>
  </defs>
  <circle cx="16" cy="16" r="10" fill="url(#gear)" stroke="#666" stroke-width="0.5"/>
  <circle cx="16" cy="16" r="5" fill="#3168D5" stroke="#1A4AAA" stroke-width="0.5"/>
  <!-- Gear teeth -->
  <rect x="14" y="4" width="4" height="6" rx="1" fill="url(#gear)"/>
  <rect x="14" y="22" width="4" height="6" rx="1" fill="url(#gear)"/>
  <rect x="4" y="14" width="6" height="4" rx="1" fill="url(#gear)"/>
  <rect x="22" y="14" width="6" height="4" rx="1" fill="url(#gear)"/>
  <rect x="9" y="7" width="4" height="5" rx="1" fill="url(#gear)" transform="rotate(-45 11 9)"/>
  <rect x="19" y="7" width="4" height="5" rx="1" fill="url(#gear)" transform="rotate(45 21 9)"/>
  <rect x="9" y="20" width="4" height="5" rx="1" fill="url(#gear)" transform="rotate(45 11 22)"/>
  <rect x="19" y="20" width="4" height="5" rx="1" fill="url(#gear)" transform="rotate(-45 21 22)"/>
  <circle cx="16" cy="16" r="3" fill="#5B8DEF"/>
</svg>