<svg xmlns="http://www.w3.org/2000/svg" viewBox="0 0 32 32">
  <defs>
    <linearGradient id="doc1" x1="0" y1="0" x2="1" y2="1">
      <stop offset="0%" stop-color="#FFFFFF"/>
      <stop offset="100%" stop-color="#E8E8E8"/>
    </linearGradient>
    <linearGradient id="doc2" x1="0" y1="0" x2="1" y2="1">
      <stop offset="0%" stop-color="#FFF"/>
      <stop offset="100%" stop-color="#DCDCDC"/>
    </linearGradient>
    <linearGradient id="doc3" x1="0" y1="0" x2="1" y2="1">
      <stop offset="0%" stop-color="#FFF"/>
      <stop offset="100%" stop-color="#E0E0E0"/>
    </linearGradient>
  </defs>
  <!-- Back document -->
  <rect x="8" y="6" width="16" height="18" rx="1.5" fill="url(#doc3)" stroke="#999" stroke-width="0.5"/>
  <rect x="9" y="7" width="14" height="2" rx="0.5" fill="#DDD"/>
  <rect x="9" y="10" width="10" height="1.5" rx="0.5" fill="#EEE"/>
  <!-- Middle document -->
  <rect x="5" y="4" width="16" height="18" rx="1.5" fill="url(#doc2)" stroke="#AAA" stroke-width="0.5"/>
  <rect x="6" y="5" width="14" height="2" rx="0.5" fill="#3168D5" opacity="0.7"/>
  <rect x="6" y="8" width="10" height="1.5" rx="0.5" fill="#CCC"/>
  <!-- Front document -->
  <rect x="2" y="2" width="16" height="18" rx="1.5" fill="url(#doc1)" stroke="#BBB" stroke-width="0.5"/>
  <rect x="3" y="3" width="14" height="2" rx="0.5" fill="#3168D5" opacity="0.8"/>
  <rect x="3" y="6" width="12" height="1.5" rx="0.5" fill="#CCC"/>
  <rect x="3" y="9" width="10" height="1.5" rx="0.5" fill="#DDD"/>
  <rect x="3" y="12" width="8" height="1.5" rx="0.5" fill="#EEE"/>
</svg>